<?xml version="1.0" encoding="UTF-8" standalone="no"?>
<!-- Created with Inkscape (http://www.inkscape.org/) -->

<svg
   xmlns:dc="http://purl.org/dc/elements/1.1/"
   xmlns:cc="http://creativecommons.org/ns#"
   xmlns:rdf="http://www.w3.org/1999/02/22-rdf-syntax-ns#"
   xmlns:svg="http://www.w3.org/2000/svg"
   xmlns="http://www.w3.org/2000/svg"
   xmlns:xlink="http://www.w3.org/1999/xlink"
   xmlns:sodipodi="http://sodipodi.sourceforge.net/DTD/sodipodi-0.dtd"
   xmlns:inkscape="http://www.inkscape.org/namespaces/inkscape"
   id="svg5572"
   version="1.1"
   inkscape:version="0.48.4 r9939"
   width="2000"
   height="2000"
   sodipodi:docname="drawing_2.png">
  <metadata
     id="metadata5578">
    <rdf:RDF>
      <cc:Work
         rdf:about="">
        <dc:format>image/svg+xml</dc:format>
        <dc:type
           rdf:resource="http://purl.org/dc/dcmitype/StillImage" />
        <dc:title></dc:title>
      </cc:Work>
    </rdf:RDF>
  </metadata>
  <defs
     id="defs5576" />
  <sodipodi:namedview
     pagecolor="#ffffff"
     bordercolor="#666666"
     borderopacity="1"
     objecttolerance="10"
     gridtolerance="10"
     guidetolerance="10"
     inkscape:pageopacity="0"
     inkscape:pageshadow="2"
     inkscape:window-width="1920"
     inkscape:window-height="1056"
     id="namedview5574"
     showgrid="false"
     inkscape:zoom="1.3350176"
     inkscape:cx="956.77"
     inkscape:cy="940.40347"
     inkscape:window-x="0"
     inkscape:window-y="24"
     inkscape:window-maximized="1"
     inkscape:current-layer="svg5572" />
  <image
     width="2000"
     height="2000"
     xlink:href="file:///home/shashank/.gazebo/models/mygroundplane/materials/textures/drawing.png"
     id="image5580"
     x="0"
     y="0" />
  <path
     d="M 0,0 0,2000 M 20,0 20,2000 M 40,0 40,2000 M 60,0 60,2000 M 80,0 80,2000 M 100,0 100,2000 M 120,0 120,2000 M 140,0 140,2000 M 160,0 160,2000 M 180,0 180,2000 M 200,0 200,2000 M 220,0 220,2000 M 240,0 240,2000 M 260,0 260,2000 M 280,0 280,2000 M 300,0 300,2000 M 320,0 320,2000 M 340,0 340,2000 M 360,0 360,2000 M 380,0 380,2000 M 400,0 400,2000 M 420,0 420,2000 M 440,0 440,2000 M 460,0 460,2000 M 480,0 480,2000 M 500,0 500,2000 M 520,0 520,2000 M 540,0 540,2000 M 560,0 560,2000 M 580,0 580,2000 M 600,0 600,2000 M 620,0 620,2000 M 640,0 640,2000 M 660,0 660,2000 M 680,0 680,2000 M 700,0 700,2000 M 720,0 720,2000 M 740,0 740,2000 M 760,0 760,2000 M 780,0 780,2000 M 800,0 800,2000 M 820,0 820,2000 M 840,0 840,2000 M 860,0 860,2000 M 880,0 880,2000 M 900,0 900,2000 M 920,0 920,2000 M 940,0 940,2000 M 960,0 960,2000 M 980,0 l 0,2000 m 20,-2000 0,2000 m 20,-2000 0,2000 m 20,-2000 0,2000 m 20,-2000 0,2000 m 20,-2000 0,2000 m 20,-2000 0,2000 m 20,-2000 0,2000 m 20,-2000 0,2000 m 20,-2000 0,2000 m 20,-2000 0,2000 m 20,-2000 0,2000 m 20,-2000 0,2000 m 20,-2000 0,2000 m 20,-2000 0,2000 m 20,-2000 0,2000 m 20,-2000 0,2000 m 20,-2000 0,2000 m 20,-2000 0,2000 m 20,-2000 0,2000 m 20,-2000 0,2000 m 20,-2000 0,2000 m 20,-2000 0,2000 m 20,-2000 0,2000 m 20,-2000 0,2000 m 20,-2000 0,2000 m 20,-2000 0,2000 m 20,-2000 0,2000 m 20,-2000 0,2000 m 20,-2000 0,2000 m 20,-2000 0,2000 m 20,-2000 0,2000 m 20,-2000 0,2000 m 20,-2000 0,2000 m 20,-2000 0,2000 m 20,-2000 0,2000 m 20,-2000 0,2000 m 20,-2000 0,2000 m 20,-2000 0,2000 m 20,-2000 0,2000 m 20,-2000 0,2000 m 20,-2000 0,2000 m 20,-2000 0,2000 m 20,-2000 0,2000 m 20,-2000 0,2000 m 20,-2000 0,2000 m 20,-2000 0,2000 m 20,-2000 0,2000 m 20,-2000 0,2000 m 20,-2000 0,2000 m 20,-2000 0,2000 m 20,-2000 0,2000 M 0,0 2000,0 M 0,20 2000,20 M 0,40 2000,40 M 0,60 2000,60 M 0,80 2000,80 M 0,100 2000,100 M 0,120 2000,120 M 0,140 2000,140 M 0,160 2000,160 M 0,180 2000,180 M 0,200 2000,200 M 0,220 2000,220 M 0,240 2000,240 M 0,260 2000,260 M 0,280 2000,280 M 0,300 2000,300 M 0,320 2000,320 M 0,340 2000,340 M 0,360 2000,360 M 0,380 2000,380 M 0,400 2000,400 M 0,420 2000,420 M 0,440 2000,440 M 0,460 2000,460 M 0,480 2000,480 M 0,500 2000,500 M 0,520 2000,520 M 0,540 2000,540 M 0,560 2000,560 M 0,580 2000,580 M 0,600 2000,600 M 0,620 2000,620 M 0,640 2000,640 M 0,660 2000,660 M 0,680 2000,680 M 0,700 2000,700 M 0,720 2000,720 M 0,740 2000,740 M 0,760 2000,760 M 0,780 2000,780 M 0,800 2000,800 M 0,820 2000,820 M 0,840 2000,840 M 0,860 2000,860 M 0,880 2000,880 M 0,900 2000,900 M 0,920 2000,920 M 0,940 2000,940 M 0,960 2000,960 M 0,980 l 2000,0 m -2000,20 2000,0 m -2000,20 2000,0 m -2000,20 2000,0 m -2000,20 2000,0 m -2000,20 2000,0 m -2000,20 2000,0 m -2000,20 2000,0 m -2000,20 2000,0 m -2000,20 2000,0 m -2000,20 2000,0 m -2000,20 2000,0 m -2000,20 2000,0 m -2000,20 2000,0 m -2000,20 2000,0 m -2000,20 2000,0 m -2000,20 2000,0 m -2000,20 2000,0 m -2000,20 2000,0 m -2000,20 2000,0 m -2000,20 2000,0 m -2000,20 2000,0 m -2000,20 2000,0 m -2000,20 2000,0 m -2000,20 2000,0 m -2000,20 2000,0 m -2000,20 2000,0 m -2000,20 2000,0 m -2000,20 2000,0 m -2000,20 2000,0 m -2000,20 2000,0 m -2000,20 2000,0 m -2000,20 2000,0 m -2000,20 2000,0 m -2000,20 2000,0 m -2000,20 2000,0 m -2000,20 2000,0 m -2000,20 2000,0 m -2000,20 2000,0 m -2000,20 2000,0 m -2000,20 2000,0 m -2000,20 2000,0 m -2000,20 2000,0 m -2000,20 2000,0 m -2000,20 2000,0 m -2000,20 2000,0 m -2000,20 2000,0 m -2000,20 2000,0 m -2000,20 2000,0 m -2000,20 2000,0 m -2000,20 2000,0 m -2000,20 2000,0"
     style="fill:none;fill-opacity:0.75000000;fill-rule:evenodd;stroke:#000000;stroke-linecap:butt;stroke-linejoin:miter;stroke-opacity:1.0000000;stroke-width:1pt"
     id="path5612" />
  <path
     d="M 0,0 0,2000 M 20,0 20,2000 M 40,0 40,2000 M 60,0 60,2000 M 80,0 80,2000 M 100,0 100,2000 M 120,0 120,2000 M 140,0 140,2000 M 160,0 160,2000 M 180,0 180,2000 M 200,0 200,2000 M 220,0 220,2000 M 240,0 240,2000 M 260,0 260,2000 M 280,0 280,2000 M 300,0 300,2000 M 320,0 320,2000 M 340,0 340,2000 M 360,0 360,2000 M 380,0 380,2000 M 400,0 400,2000 M 420,0 420,2000 M 440,0 440,2000 M 460,0 460,2000 M 480,0 480,2000 M 500,0 500,2000 M 520,0 520,2000 M 540,0 540,2000 M 560,0 560,2000 M 580,0 580,2000 M 600,0 600,2000 M 620,0 620,2000 M 640,0 640,2000 M 660,0 660,2000 M 680,0 680,2000 M 700,0 700,2000 M 720,0 720,2000 M 740,0 740,2000 M 760,0 760,2000 M 780,0 780,2000 M 800,0 800,2000 M 820,0 820,2000 M 840,0 840,2000 M 860,0 860,2000 M 880,0 880,2000 M 900,0 900,2000 M 920,0 920,2000 M 940,0 940,2000 M 960,0 960,2000 M 980,0 l 0,2000 m 20,-2000 0,2000 m 20,-2000 0,2000 m 20,-2000 0,2000 m 20,-2000 0,2000 m 20,-2000 0,2000 m 20,-2000 0,2000 m 20,-2000 0,2000 m 20,-2000 0,2000 m 20,-2000 0,2000 m 20,-2000 0,2000 m 20,-2000 0,2000 m 20,-2000 0,2000 m 20,-2000 0,2000 m 20,-2000 0,2000 m 20,-2000 0,2000 m 20,-2000 0,2000 m 20,-2000 0,2000 m 20,-2000 0,2000 m 20,-2000 0,2000 m 20,-2000 0,2000 m 20,-2000 0,2000 m 20,-2000 0,2000 m 20,-2000 0,2000 m 20,-2000 0,2000 m 20,-2000 0,2000 m 20,-2000 0,2000 m 20,-2000 0,2000 m 20,-2000 0,2000 m 20,-2000 0,2000 m 20,-2000 0,2000 m 20,-2000 0,2000 m 20,-2000 0,2000 m 20,-2000 0,2000 m 20,-2000 0,2000 m 20,-2000 0,2000 m 20,-2000 0,2000 m 20,-2000 0,2000 m 20,-2000 0,2000 m 20,-2000 0,2000 m 20,-2000 0,2000 m 20,-2000 0,2000 m 20,-2000 0,2000 m 20,-2000 0,2000 m 20,-2000 0,2000 m 20,-2000 0,2000 m 20,-2000 0,2000 m 20,-2000 0,2000 m 20,-2000 0,2000 m 20,-2000 0,2000 m 20,-2000 0,2000 m 20,-2000 0,2000 M 0,0 2000,0 M 0,20 2000,20 M 0,40 2000,40 M 0,60 2000,60 M 0,80 2000,80 M 0,100 2000,100 M 0,120 2000,120 M 0,140 2000,140 M 0,160 2000,160 M 0,180 2000,180 M 0,200 2000,200 M 0,220 2000,220 M 0,240 2000,240 M 0,260 2000,260 M 0,280 2000,280 M 0,300 2000,300 M 0,320 2000,320 M 0,340 2000,340 M 0,360 2000,360 M 0,380 2000,380 M 0,400 2000,400 M 0,420 2000,420 M 0,440 2000,440 M 0,460 2000,460 M 0,480 2000,480 M 0,500 2000,500 M 0,520 2000,520 M 0,540 2000,540 M 0,560 2000,560 M 0,580 2000,580 M 0,600 2000,600 M 0,620 2000,620 M 0,640 2000,640 M 0,660 2000,660 M 0,680 2000,680 M 0,700 2000,700 M 0,720 2000,720 M 0,740 2000,740 M 0,760 2000,760 M 0,780 2000,780 M 0,800 2000,800 M 0,820 2000,820 M 0,840 2000,840 M 0,860 2000,860 M 0,880 2000,880 M 0,900 2000,900 M 0,920 2000,920 M 0,940 2000,940 M 0,960 2000,960 M 0,980 l 2000,0 m -2000,20 2000,0 m -2000,20 2000,0 m -2000,20 2000,0 m -2000,20 2000,0 m -2000,20 2000,0 m -2000,20 2000,0 m -2000,20 2000,0 m -2000,20 2000,0 m -2000,20 2000,0 m -2000,20 2000,0 m -2000,20 2000,0 m -2000,20 2000,0 m -2000,20 2000,0 m -2000,20 2000,0 m -2000,20 2000,0 m -2000,20 2000,0 m -2000,20 2000,0 m -2000,20 2000,0 m -2000,20 2000,0 m -2000,20 2000,0 m -2000,20 2000,0 m -2000,20 2000,0 m -2000,20 2000,0 m -2000,20 2000,0 m -2000,20 2000,0 m -2000,20 2000,0 m -2000,20 2000,0 m -2000,20 2000,0 m -2000,20 2000,0 m -2000,20 2000,0 m -2000,20 2000,0 m -2000,20 2000,0 m -2000,20 2000,0 m -2000,20 2000,0 m -2000,20 2000,0 m -2000,20 2000,0 m -2000,20 2000,0 m -2000,20 2000,0 m -2000,20 2000,0 m -2000,20 2000,0 m -2000,20 2000,0 m -2000,20 2000,0 m -2000,20 2000,0 m -2000,20 2000,0 m -2000,20 2000,0 m -2000,20 2000,0 m -2000,20 2000,0 m -2000,20 2000,0 m -2000,20 2000,0 m -2000,20 2000,0 m -2000,20 2000,0"
     style="fill:none;fill-opacity:0.75000000;fill-rule:evenodd;stroke:#000000;stroke-linecap:butt;stroke-linejoin:miter;stroke-opacity:1.0000000;stroke-width:1pt"
     id="path5614" />
  <path
     d="M 0,0 0,2000 M 20,0 20,2000 M 40,0 40,2000 M 60,0 60,2000 M 80,0 80,2000 M 100,0 100,2000 M 120,0 120,2000 M 140,0 140,2000 M 160,0 160,2000 M 180,0 180,2000 M 200,0 200,2000 M 220,0 220,2000 M 240,0 240,2000 M 260,0 260,2000 M 280,0 280,2000 M 300,0 300,2000 M 320,0 320,2000 M 340,0 340,2000 M 360,0 360,2000 M 380,0 380,2000 M 400,0 400,2000 M 420,0 420,2000 M 440,0 440,2000 M 460,0 460,2000 M 480,0 480,2000 M 500,0 500,2000 M 520,0 520,2000 M 540,0 540,2000 M 560,0 560,2000 M 580,0 580,2000 M 600,0 600,2000 M 620,0 620,2000 M 640,0 640,2000 M 660,0 660,2000 M 680,0 680,2000 M 700,0 700,2000 M 720,0 720,2000 M 740,0 740,2000 M 760,0 760,2000 M 780,0 780,2000 M 800,0 800,2000 M 820,0 820,2000 M 840,0 840,2000 M 860,0 860,2000 M 880,0 880,2000 M 900,0 900,2000 M 920,0 920,2000 M 940,0 940,2000 M 960,0 960,2000 M 980,0 l 0,2000 m 20,-2000 0,2000 m 20,-2000 0,2000 m 20,-2000 0,2000 m 20,-2000 0,2000 m 20,-2000 0,2000 m 20,-2000 0,2000 m 20,-2000 0,2000 m 20,-2000 0,2000 m 20,-2000 0,2000 m 20,-2000 0,2000 m 20,-2000 0,2000 m 20,-2000 0,2000 m 20,-2000 0,2000 m 20,-2000 0,2000 m 20,-2000 0,2000 m 20,-2000 0,2000 m 20,-2000 0,2000 m 20,-2000 0,2000 m 20,-2000 0,2000 m 20,-2000 0,2000 m 20,-2000 0,2000 m 20,-2000 0,2000 m 20,-2000 0,2000 m 20,-2000 0,2000 m 20,-2000 0,2000 m 20,-2000 0,2000 m 20,-2000 0,2000 m 20,-2000 0,2000 m 20,-2000 0,2000 m 20,-2000 0,2000 m 20,-2000 0,2000 m 20,-2000 0,2000 m 20,-2000 0,2000 m 20,-2000 0,2000 m 20,-2000 0,2000 m 20,-2000 0,2000 m 20,-2000 0,2000 m 20,-2000 0,2000 m 20,-2000 0,2000 m 20,-2000 0,2000 m 20,-2000 0,2000 m 20,-2000 0,2000 m 20,-2000 0,2000 m 20,-2000 0,2000 m 20,-2000 0,2000 m 20,-2000 0,2000 m 20,-2000 0,2000 m 20,-2000 0,2000 m 20,-2000 0,2000 m 20,-2000 0,2000 m 20,-2000 0,2000 M 0,0 2000,0 M 0,20 2000,20 M 0,40 2000,40 M 0,60 2000,60 M 0,80 2000,80 M 0,100 2000,100 M 0,120 2000,120 M 0,140 2000,140 M 0,160 2000,160 M 0,180 2000,180 M 0,200 2000,200 M 0,220 2000,220 M 0,240 2000,240 M 0,260 2000,260 M 0,280 2000,280 M 0,300 2000,300 M 0,320 2000,320 M 0,340 2000,340 M 0,360 2000,360 M 0,380 2000,380 M 0,400 2000,400 M 0,420 2000,420 M 0,440 2000,440 M 0,460 2000,460 M 0,480 2000,480 M 0,500 2000,500 M 0,520 2000,520 M 0,540 2000,540 M 0,560 2000,560 M 0,580 2000,580 M 0,600 2000,600 M 0,620 2000,620 M 0,640 2000,640 M 0,660 2000,660 M 0,680 2000,680 M 0,700 2000,700 M 0,720 2000,720 M 0,740 2000,740 M 0,760 2000,760 M 0,780 2000,780 M 0,800 2000,800 M 0,820 2000,820 M 0,840 2000,840 M 0,860 2000,860 M 0,880 2000,880 M 0,900 2000,900 M 0,920 2000,920 M 0,940 2000,940 M 0,960 2000,960 M 0,980 l 2000,0 m -2000,20 2000,0 m -2000,20 2000,0 m -2000,20 2000,0 m -2000,20 2000,0 m -2000,20 2000,0 m -2000,20 2000,0 m -2000,20 2000,0 m -2000,20 2000,0 m -2000,20 2000,0 m -2000,20 2000,0 m -2000,20 2000,0 m -2000,20 2000,0 m -2000,20 2000,0 m -2000,20 2000,0 m -2000,20 2000,0 m -2000,20 2000,0 m -2000,20 2000,0 m -2000,20 2000,0 m -2000,20 2000,0 m -2000,20 2000,0 m -2000,20 2000,0 m -2000,20 2000,0 m -2000,20 2000,0 m -2000,20 2000,0 m -2000,20 2000,0 m -2000,20 2000,0 m -2000,20 2000,0 m -2000,20 2000,0 m -2000,20 2000,0 m -2000,20 2000,0 m -2000,20 2000,0 m -2000,20 2000,0 m -2000,20 2000,0 m -2000,20 2000,0 m -2000,20 2000,0 m -2000,20 2000,0 m -2000,20 2000,0 m -2000,20 2000,0 m -2000,20 2000,0 m -2000,20 2000,0 m -2000,20 2000,0 m -2000,20 2000,0 m -2000,20 2000,0 m -2000,20 2000,0 m -2000,20 2000,0 m -2000,20 2000,0 m -2000,20 2000,0 m -2000,20 2000,0 m -2000,20 2000,0 m -2000,20 2000,0 m -2000,20 2000,0"
     style="fill:#ffffff;stroke:#ffffff;stroke-width:1pt;stroke-linecap:butt;stroke-linejoin:miter;stroke-opacity:1"
     id="path5616"
     inkscape:connector-curvature="0" />
</svg>
