<?xml version="1.0" encoding="UTF-8" standalone="no"?>
<!-- Created with Inkscape (http://www.inkscape.org/) -->

<svg
   xmlns:dc="http://purl.org/dc/elements/1.1/"
   xmlns:cc="http://creativecommons.org/ns#"
   xmlns:rdf="http://www.w3.org/1999/02/22-rdf-syntax-ns#"
   xmlns:svg="http://www.w3.org/2000/svg"
   xmlns="http://www.w3.org/2000/svg"
   xmlns:sodipodi="http://sodipodi.sourceforge.net/DTD/sodipodi-0.dtd"
   xmlns:inkscape="http://www.inkscape.org/namespaces/inkscape"
   width="792pt"
   height="612pt"
   id="svg2985"
   version="1.1"
   inkscape:version="0.48.4 r9939"
   sodipodi:docname="drawing.png">
  <defs
     id="defs2987" />
  <sodipodi:namedview
     inkscape:document-units="in"
     pagecolor="#ffffff"
     bordercolor="#666666"
     borderopacity="1.0"
     inkscape:pageopacity="0.0"
     inkscape:pageshadow="2"
     inkscape:zoom="0.86831672"
     inkscape:cx="448.43439"
     inkscape:cy="454.03372"
     inkscape:current-layer="layer1"
     id="namedview2989"
     showgrid="false"
     inkscape:snap-global="false"
     inkscape:window-width="1920"
     inkscape:window-height="1056"
     inkscape:window-x="0"
     inkscape:window-y="24"
     inkscape:window-maximized="1" />
  <metadata
     id="metadata2991">
    <rdf:RDF>
      <cc:Work
         rdf:about="">
        <dc:format>image/svg+xml</dc:format>
        <dc:type
           rdf:resource="http://purl.org/dc/dcmitype/StillImage" />
        <dc:title></dc:title>
      </cc:Work>
    </rdf:RDF>
  </metadata>
  <g
     inkscape:label="Layer 1"
     inkscape:groupmode="layer"
     id="layer1">
    <path
       style="fill:none;stroke:#000000;stroke-width:1px;stroke-linecap:butt;stroke-linejoin:miter;stroke-opacity:1"
       d="m 50.489204,134.69929 0,408.79968 73.290786,0 0,-162.8684 144.95287,0 0,161.23972 99.34973,0 0,-169.38314 162.8684,0 0,268.73286 -271.99023,0 0,74.91947 605.87045,0 0,-87.94894 -234.5305,0 0,-252.44602 228.01577,0 0,171.01182 79.80551,0 0,-425.08653 -96.09235,0 0,154.72499 -477.20442,0 0,-156.35367 -102.60709,0 0,149.83893 -136.80946,0 0,-141.69551 -76.54815,0 z"
       id="path2994"
       inkscape:connector-curvature="0" />
    <path
       style="fill:#000000"
       d="m 260.14849,678.88848 0,-36.64539 135.99511,0 135.99512,0 0,-135.18077 0,-135.18077 -83.06289,0 -83.06288,0 0,84.69157 0,84.69157 -48.04618,0 -48.04618,0 0,-80.61986 0,-80.61986 -74.10512,0 -74.10513,0 0,81.4342 0,81.4342 -35.004341,0 -35.004348,0 -0.41953,-206.84294 -0.419531,-206.84294 36.23822,7e-5 36.23822,7e-5 0,70.84775 0,70.84776 70.03341,0 70.03341,0 0,-74.91947 0,-74.91946 49.67487,0 49.67486,0 0,78.17683 0,78.17683 240.23089,0 240.23089,0 0,-77.36249 0,-77.36249 46.4175,0 46.41749,0 0,211.72893 0,211.72892 -38.27407,0 -49.79062,1.15165 1.15166,-93.56748 -1.15166,-75.14103 -104.12002,-3.45496 -115.63657,0 0,127.03735 0,127.03735 117.26525,0 117.26525,0 0,43.16013 0,43.16013 -301.30654,0 -301.30654,0 z"
       id="path2996"
       inkscape:connector-curvature="0"
       sodipodi:nodetypes="ccccccccccccccccccccccccccccccccccccccccccccccccccccccccc" />
    <path
       sodipodi:type="arc"
       id="path3000"
       style="fill:#000000;stroke:none"
       sodipodi:cx="83.062881"
       sodipodi:cy="168.90166"
       sodipodi:rx="1.5"
       sodipodi:ry="1.5"
       d="m 84.562881,168.90166 a 1.5,1.5 0 1 1 -3,0 1.5,1.5 0 1 1 3,0 z" />
    <path
       sodipodi:type="arc"
       id="path3002"
       style="fill:#000000;stroke:none"
       sodipodi:cx="89.577621"
       sodipodi:cy="494.63846"
       sodipodi:rx="1.5"
       sodipodi:ry="1.5"
       d="m 91.077621,494.63846 a 1.5,1.5 0 1 1 -3,0 1.5,1.5 0 1 1 3,0 z" />
    <path
       sodipodi:type="arc"
       id="path3004"
       style="fill:#000000;stroke:none"
       sodipodi:cx="87.948936"
       sodipodi:cy="168.90166"
       sodipodi:rx="1.5"
       sodipodi:ry="1.5"
       d="m 89.448936,168.90166 a 1.5,1.5 0 1 1 -3,0 1.5,1.5 0 1 1 3,0 z" />
    <path
       sodipodi:type="arc"
       id="path3006"
       style="fill:#000000;stroke:none"
       sodipodi:cx="89.577621"
       sodipodi:cy="170.53033"
       sodipodi:rx="1.5"
       sodipodi:ry="1.5"
       d="m 91.077621,170.53033 a 1.5,1.5 0 1 1 -3,0 1.5,1.5 0 1 1 3,0 z" />
    <path
       sodipodi:type="arc"
       id="path3008"
       style="fill:#000000;stroke:none"
       sodipodi:cx="91.206306"
       sodipodi:cy="313.85452"
       sodipodi:rx="1.5"
       sodipodi:ry="1.5"
       d="m 92.706306,313.85452 a 1.5,1.5 0 1 1 -3,0 1.5,1.5 0 1 1 3,0 z" />
    <path
       style="fill:#ffffff;stroke:#000000;stroke-width:1px;stroke-linecap:butt;stroke-linejoin:miter;stroke-opacity:1"
       d="m 84.691569,177.04507 0,311.07865"
       id="path3014"
       inkscape:connector-curvature="0" />
    <path
       style="fill:none;stroke:#000000;stroke-width:1px;stroke-linecap:butt;stroke-linejoin:miter;stroke-opacity:1"
       d="m 83.062885,159.12955 0,345.28101"
       id="path3020"
       inkscape:connector-curvature="0" />
    <path
       style="fill:#000000;stroke:#000000;stroke-width:1px;stroke-linecap:butt;stroke-linejoin:miter;stroke-opacity:1"
       d="m 74.919465,160.75823 0,358.31048 17.915524,0 0,-359.93916 z"
       id="path3022"
       inkscape:connector-curvature="0" />
    <path
       style="fill:#000000;stroke:#000000;stroke-width:1px;stroke-linecap:butt;stroke-linejoin:miter;stroke-opacity:1"
       d="m 72.554171,311.24852 818.825649,0 4.60662,12.66818 -814.219041,-2.30331 1.151654,-12.66818"
       id="path3024"
       inkscape:connector-curvature="0"
       sodipodi:nodetypes="ccccc" />
    <path
       style="fill:#000000;stroke:#000000;stroke-width:1px;stroke-linecap:butt;stroke-linejoin:miter;stroke-opacity:1"
       d="m 305.18818,159.23025 0,357.01259 24.18472,0 0,-373.13574 -27.63968,0 z"
       id="path3026"
       inkscape:connector-curvature="0" />
    <path
       style="fill:#000000;stroke:#000000;stroke-width:1px;stroke-linecap:butt;stroke-linejoin:miter;stroke-opacity:1"
       d="m 574.6751,348.10143 0,316.70471 -293.67164,0 0,23.03307 540.12549,0 0,-25.33637 -223.42078,0 0,-345.49606 -26.48803,0 z"
       id="path3028"
       inkscape:connector-curvature="0" />
    <path
       style="fill:#000000;stroke:#000000;stroke-width:1px;stroke-linecap:butt;stroke-linejoin:miter;stroke-opacity:1"
       d="m 883.31824,161.53356 0,354.70928 19.57811,0 0,-353.55763 z"
       id="path3036"
       inkscape:connector-curvature="0" />
  </g>
</svg>
